# xmcd CD database file
#
# Track frame offsets:
#	150
#	30208
#	55265
#	85928
#	114523
#	145070
#	171468
#
# Disc length: 2560 seconds
#
# Revision: 2
# Processed by: cddbd v1.5.2PL0 Copyright (c) Steve Scherf et al.
# Submitted via: CDex 1.51
#
DISCID=5409fe07
DTITLE=Bob James - Heads
DYEAR=1977
DGENRE=Fusion
TTITLE0=Heads
TTITLE1=We're All Alone
TTITLE2=I'm In You
TTITLE3=Night Crawler
TTITLE4=You're So Beautiful
TTITLE5=One Loving Night
TTITLE6=Foot Fetish
EXTD=YEAR: 1977
EXTT0=
EXTT1=
EXTT2=
EXTT3=
EXTT4=
EXTT5=
EXTT6=
PLAYORDER=
